<svg xmlns="http://www.w3.org/2000/svg" viewBox="0 0 297.000000 297.000000" preserveAspectRatio="xMidYMid meet">  <g transform="translate(0.000000,297.000000) scale(0.100000,-0.100000)" fill="#3b82f6" stroke=""> <path d="M488 2623 c-21 -2 -38 -9 -38 -14 0 -6 -4 -7 -10 -4 -11 7 -85 -29 -97 -47 -4 -7 -8 -17 -8 -23 0 -5 -11 -15 -24 -21 -13 -7 -32 -31 -42 -54 -23 -50 -24 -62 -4 -36 8 11 15 15 15 8 0 -6 -10 -18 -22 -27 l-23 -15 0 -668 0 -667 28 -59 c30 -66 90 -131 112 -122 8 3 16 -3 20 -14 8 -26 63 -39 198 -47 l88 -5 -3 -83 c-2 -46 -6 -81 -10 -78 -5 2 -9 -8 -10 -24 -2 -46 -5 -57 -15 -83 -37 -92 -52 -142 -46 -156 4 -12 3 -15 -5 -10 -15 9 -5 -47 14 -85 16 -31 60 -62 76 -53 7 5 8 3 3 -6 -14 -22 92 -7 111 16 9 10 13 14 10 7 -4 -6 14 0 39 13 25 14 43 30 40 35 -4 5 0 6 8 3 7 -2 26 7 40 22 15 15 27 23 27 19 0 -4 6 -2 14 5 16 13 10 44 -7 33 -6 -4 -7 -1 -2 7 6 10 11 9 21 -5 13 -18 14 -18 34 0 16 14 18 21 8 28 -9 6 -6 7 9 4 14 -3 28 3 40 16 16 18 16 20 1 14 -17 -6 -43 15 -31 26 3 4 0 7 -7 7 -7 0 -11 3 -7 6 3 3 19 -5 36 -17 l31 -23 90 91 c50 49 89 96 87 104 -2 8 -2 10 1 6 6 -11 52 33 52 50 0 7 4 13 9 13 5 0 26 22 47 49 l37 50 491 4 c461 3 543 7 531 27 -3 5 -1 11 5 15 5 3 10 1 10 -5 0 -15 58 17 92 51 29 28 37 46 16 33 -7 -4 -8 -3 -4 5 4 6 11 9 16 6 16 -10 29 29 17 50 -9 18 -9 18 5 7 35 -28 38 29 38 724 0 468 -3 674 -11 674 -5 0 -7 4 -4 10 7 11 -29 92 -48 109 -8 6 -23 9 -33 5 -15 -5 -16 -4 -4 4 21 15 -8 44 -73 74 l-52 23 -945 1 c-520 1 -962 -1 -982 -3z m-68 -37 c0 -3 -5 -8 -12 -12 -7 -4 -8 -3 -4 4 7 12 16 16 16 8z m-33 -24 c1 -11 -5 -18 -18 -18 -24 0 -24 5 -1 22 9 7 17 14 17 14 1 0 1 -8 2 -18z m2103 7 c0 -5 4 -8 8 -5 4 2 14 0 22 -5 13 -9 13 -10 0 -6 -8 2 -21 -3 -28 -12 -8 -9 -11 -10 -7 -3 4 7 1 19 -5 27 -9 11 -9 15 -1 15 6 0 11 -5 11 -11z m-2156 -73 c-10 -8 -21 -12 -24 -10 -5 6 21 24 34 24 6 0 1 -6 -10 -14z m2233 -3 c-4 -3 -10 -3 -14 0 -3 4 0 7 7 7 7 0 10 -3 7 -7z m-2250 -40 c-4 -3 -7 0 -7 7 0 7 3 10 7 7 3 -4 3 -10 0 -14z m-6 -36 c-10 -9 -11 -8 -5 6 3 10 9 15 12 12 3 -3 0 -11 -7 -18z m2263 7 c3 -8 2 -12 -4 -9 -6 3 -10 10 -10 16 0 14 7 11 14 -7z m21 -63 c3 -5 1 -12 -5 -16 -5 -3 -10 1 -10 9 0 18 6 21 15 7z m-1168 -37 c-3 -3 -12 -4 -19 -1 -8 3 -5 6 6 6 11 1 17 -2 13 -5z m40 0 c-3 -3 -12 -4 -19 -1 -8 3 -5 6 6 6 11 1 17 -2 13 -5z m-180 -46 c-3 -8 -6 -5 -6 6 -1 11 2 17 5 13 3 -3 4 -12 1 -19z m203 -28 c0 -5 -7 -7 -15 -4 -8 4 -15 8 -15 10 0 2 7 4 15 4 8 0 15 -4 15 -10z m-4 -37 c7 -10 18 -33 24 -51 7 -19 16 -29 22 -26 7 4 8 2 4 -5 -4 -6 -4 -20 -1 -32 5 -16 10 -18 21 -8 17 14 19 -2 2 -19 -9 -9 -9 -12 1 -12 7 0 9 -4 6 -10 -8 -13 35 -109 54 -119 9 -5 81 -14 161 -21 149 -13 180 -20 180 -45 0 -7 5 -17 12 -21 7 -5 8 -3 3 6 -6 9 -4 11 5 5 10 -6 12 -4 6 11 -5 13 -4 16 3 9 11 -11 3 -58 -9 -50 -4 3 -29 -18 -54 -45 -26 -28 -50 -50 -55 -50 -4 0 -16 -9 -25 -19 -17 -18 -17 -20 1 -24 13 -4 13 -5 -4 -4 -13 1 -41 -14 -66 -35 -42 -35 -44 -38 -41 -90 1 -29 14 -102 29 -161 24 -94 26 -111 15 -133 -17 -30 -51 -40 -82 -23 -12 7 -27 12 -33 10 -29 -8 -65 -8 -65 0 0 6 8 8 18 5 9 -3 23 -2 30 2 9 6 1 14 -25 28 -21 10 -40 23 -41 27 -2 4 -16 0 -30 -9 -27 -17 -27 -17 -9 3 20 22 9 40 -18 29 -8 -3 -14 0 -12 7 1 6 -8 13 -21 15 -12 2 -20 7 -17 12 7 12 -31 23 -55 15 -11 -4 -18 -10 -15 -15 3 -5 -5 -10 -17 -12 -13 -2 -22 -9 -20 -16 1 -8 -2 -11 -8 -7 -6 4 -18 4 -27 1 -14 -6 -14 -9 3 -28 l19 -21 -25 15 c-23 15 -28 14 -68 -12 -33 -20 -40 -29 -28 -33 9 -4 23 -4 31 -1 8 4 15 1 15 -4 0 -9 -35 -9 -65 -1 -6 2 -21 -3 -33 -10 -30 -16 -68 -7 -82 20 -9 16 -7 41 9 109 11 49 18 97 14 106 -4 11 -2 15 4 11 6 -4 15 17 22 49 l13 56 -43 44 c-24 24 -47 44 -52 44 -4 0 -20 14 -34 30 -13 17 -29 30 -35 30 -6 0 -5 -6 2 -15 11 -13 10 -14 -4 -9 -9 3 -15 14 -14 23 2 10 -3 15 -12 13 -8 -2 -12 0 -7 4 4 4 -5 20 -19 35 -30 31 -35 76 -10 94 9 7 50 15 91 19 268 22 240 10 292 133 18 43 30 84 28 91 -3 8 0 10 7 6 8 -5 9 -2 5 9 -3 10 -2 17 3 17 9 0 20 27 19 45 -1 6 -5 9 -10 8 -4 -2 -6 4 -2 13 4 11 8 12 13 4 3 -6 14 -8 23 -4 9 3 15 10 12 14 -10 17 57 -10 71 -27z m-125 -36 c-10 -9 -11 -8 -5 6 3 10 9 15 12 12 3 -3 0 -11 -7 -18z m176 -4 c-4 -3 -7 0 -7 7 0 7 3 10 7 7 3 -4 3 -10 0 -14z m-200 -20 c-4 -3 -7 0 -7 7 0 7 3 10 7 7 3 -4 3 -10 0 -14z m240 -10 c-4 -3 -7 0 -7 7 0 7 3 10 7 7 3 -4 3 -10 0 -14z m-252 -52 c3 -5 2 -12 -3 -15 -5 -3 -9 1 -9 9 0 17 3 19 12 6z m262 -48 c-4 -3 -7 0 -7 7 0 7 3 10 7 7 3 -4 3 -10 0 -14z m10 -35 c2 -17 0 -19 -7 -8 -5 8 -6 18 -4 22 8 12 10 10 11 -14z m-330 -5 c-4 -3 -10 -3 -14 0 -3 4 0 7 7 7 7 0 10 -3 7 -7z m360 0 c-4 -3 -10 -3 -14 0 -3 4 0 7 7 7 7 0 10 -3 7 -7z m30 0 c-4 -3 -10 -3 -14 0 -3 4 0 7 7 7 7 0 10 -3 7 -7z m1 -58 c-3 -3 -9 2 -12 12 -6 14 -5 15 5 6 7 -7 10 -15 7 -18z m-431 -2 c-4 -3 -7 0 -7 7 0 7 3 10 7 7 3 -4 3 -10 0 -14z m-90 -10 c-4 -3 -10 -3 -14 0 -3 4 0 7 7 7 7 0 10 -3 7 -7z m620 0 c-4 -3 -10 -3 -14 0 -3 4 0 7 7 7 7 0 10 -3 7 -7z m218 -23 c3 -5 4 -10 1 -10 -3 0 -8 5 -11 10 -3 6 -4 10 -1 10 3 0 8 -4 11 -10z m-1065 -4 c0 -2 -7 -7 -16 -10 -8 -3 -12 -2 -9 4 6 10 25 14 25 6z m-8 -28 c-14 -14 -16 -32 -2 -23 6 4 7 -1 3 -11 -6 -15 -7 -15 -15 0 -9 16 5 46 20 46 3 0 1 -5 -6 -12z m-32 -68 c0 -5 -4 -10 -10 -10 -5 0 -10 5 -10 10 0 6 5 10 10 10 6 0 10 -4 10 -10z m35 0 c3 -5 4 -10 1 -10 -3 0 -8 5 -11 10 -3 6 -4 10 -1 10 3 0 8 -4 11 -10z m1117 -12 c-7 -7 -12 -8 -12 -2 0 6 3 14 7 17 3 4 9 5 12 2 2 -3 -1 -11 -7 -17z m-55 -13 c-11 -23 -27 -34 -27 -18 0 6 30 43 36 43 1 0 -3 -11 -9 -25z m28 -5 c3 -5 4 -10 1 -10 -3 0 -8 5 -11 10 -3 6 -4 10 -1 10 3 0 8 -4 11 -10z m-1055 -10 c0 -5 -5 -10 -11 -10 -5 0 -7 5 -4 10 3 6 8 10 11 10 2 0 4 -4 4 -10z m-54 -47 c-11 -11 -19 6 -11 24 8 17 8 17 12 0 3 -10 2 -21 -1 -24z m1124 12 c0 -8 -4 -15 -10 -15 -5 0 -10 7 -10 15 0 8 5 15 10 15 6 0 10 -7 10 -15z m-100 -29 c0 -3 -5 -8 -12 -12 -7 -4 -8 -3 -4 4 7 12 16 16 16 8z m-873 -23 c-4 -3 -10 -3 -14 0 -3 4 0 7 7 7 7 0 10 -3 7 -7z m41 -58 c-3 -3 -9 2 -12 12 -6 14 -5 15 5 6 7 -7 10 -15 7 -18z m-24 -1 c3 -8 2 -12 -4 -9 -6 3 -10 10 -10 16 0 14 7 11 14 -7z m863 -11 c-4 -3 -7 0 -7 7 0 7 3 10 7 7 3 -4 3 -10 0 -14z m-775 -55 c-6 -6 -9 0 -9 18 0 23 1 24 9 10 7 -12 7 -21 0 -28z m311 -185 c-7 -2 -19 -2 -25 0 -7 3 -2 5 12 5 14 0 19 -2 13 -5z m-376 -30 c-4 -3 -7 0 -7 7 0 7 3 10 7 7 3 -4 3 -10 0 -14z m728 7 c3 -5 1 -10 -4 -10 -6 0 -11 5 -11 10 0 6 2 10 4 10 3 0 8 -4 11 -10z m-345 -8 c0 -4 -9 -8 -20 -8 -11 0 -20 4 -20 8 0 4 9 8 20 8 11 0 20 -4 20 -8z m-383 -39 c-4 -3 -7 0 -7 7 0 7 3 10 7 7 3 -4 3 -10 0 -14z m370 -10 c-4 -3 -10 -3 -14 0 -3 4 0 7 7 7 7 0 10 -3 7 -7z m388 -33 c3 -5 4 -10 1 -10 -3 0 -8 5 -11 10 -3 6 -4 10 -1 10 3 0 8 -4 11 -10z m-779 -30 c0 -12 -4 -16 -9 -11 -5 5 -6 14 -3 20 10 15 12 14 12 -9z m727 -11 c-8 -8 -13 -7 -18 2 -5 8 -4 10 3 5 7 -4 12 -2 12 5 0 7 3 9 7 6 4 -4 2 -12 -4 -18z m44 8 c0 -8 -6 -14 -14 -14 -9 0 -10 4 -2 14 6 7 12 13 14 13 1 0 2 -6 2 -13z m-710 -14 c-4 -3 -7 0 -7 7 0 7 3 10 7 7 3 -4 3 -10 0 -14z m270 1 c-3 -3 -12 -4 -19 -1 -8 3 -5 6 6 6 11 1 17 -2 13 -5z m130 0 c-3 -3 -12 -4 -19 -1 -8 3 -5 6 6 6 11 1 17 -2 13 -5z m-1220 -201 c-4 -3 -7 0 -7 7 0 7 3 10 7 7 3 -4 3 -10 0 -14z m-20 -20 c-4 -3 -7 0 -7 7 0 7 3 10 7 7 3 -4 3 -10 0 -14z m2290 -30 c-4 -3 -7 0 -7 7 0 7 3 10 7 7 3 -4 3 -10 0 -14z m-2252 -12 c3 -5 2 -12 -3 -15 -5 -3 -9 1 -9 9 0 17 3 19 12 6z m2235 -25 c0 -3 -5 -8 -12 -12 -7 -4 -8 -3 -4 4 7 12 16 16 16 8z m-1233 -43 c-4 -3 -10 -3 -14 0 -3 4 0 7 7 7 7 0 10 -3 7 -7z m-670 -20 c-4 -3 -7 0 -7 7 0 7 3 10 7 7 3 -4 3 -10 0 -14z m1848 7 c-3 -5 -10 -10 -16 -10 -5 0 -9 5 -9 10 0 6 7 10 16 10 8 0 12 -4 9 -10z m-2022 -7 c-7 -2 -19 -2 -25 0 -7 3 -2 5 12 5 14 0 19 -2 13 -5z m1944 0 c-4 -3 -10 -3 -14 0 -3 4 0 7 7 7 7 0 10 -3 7 -7z m-1970 -20 c-4 -3 -10 -3 -14 0 -3 4 0 7 7 7 7 0 10 -3 7 -7z m106 -10 c-7 -2 -19 -2 -25 0 -7 3 -2 5 12 5 14 0 19 -2 13 -5z m102 -3 c3 -5 1 -10 -4 -10 -6 0 -11 5 -11 10 0 6 2 10 4 10 3 0 8 -4 11 -10z m1702 4 c-3 -3 -12 -4 -19 -1 -8 3 -5 6 6 6 11 1 17 -2 13 -5z m-1660 -71 c-4 -3 -7 0 -7 7 0 7 3 10 7 7 3 -4 3 -10 0 -14z m103 1 c0 -8 -4 -12 -10 -9 -5 3 -10 10 -10 16 0 5 5 9 10 9 6 0 10 -7 10 -16z m-63 -31 c-4 -3 -7 0 -7 7 0 7 3 10 7 7 3 -4 3 -10 0 -14z m580 -30 c-4 -3 -10 -3 -14 0 -3 4 0 7 7 7 7 0 10 -3 7 -7z m-90 -80 c-4 -3 -7 0 -7 7 0 7 3 10 7 7 3 -4 3 -10 0 -14z m-9 -48 c-3 -3 -9 2 -12 12 -6 14 -5 15 5 6 7 -7 10 -15 7 -18z m-33 -16 c11 -16 1 -19 -13 -3 -7 8 -8 14 -3 14 5 0 13 -5 16 -11z m-23 -23 c7 4 8 2 4 -5 -10 -15 -26 -4 -25 17 1 15 2 15 6 -1 2 -9 9 -14 15 -11z m-28 -22 c3 -8 2 -12 -4 -9 -6 3 -10 10 -10 16 0 14 7 11 14 -7z m-507 -101 c-4 -3 -10 -3 -14 0 -3 4 0 7 7 7 7 0 10 -3 7 -7z m283 -57 c0 -2 -7 -7 -16 -10 -8 -3 -12 -2 -9 4 6 10 25 14 25 6z m-280 -57 c0 -18 -18 -9 -23 12 -4 16 -3 18 9 8 8 -6 14 -15 14 -20z m211 16 c-18 -8 -36 -15 -40 -15 -13 1 45 29 59 29 8 0 0 -6 -19 -14z m-114 -82 c-4 -3 -10 -3 -14 0 -3 4 0 7 7 7 7 0 10 -3 7 -7z" /> <path d="M310 2529 c0 -5 5 -7 10 -4 6 3 10 8 10 11 0 2 -4 4 -10 4 -5 0 -10 -5 -10 -11z" /> <path d="M1055 460 c3 -5 8 -10 11 -10 3 0 2 5 -1 10 -3 6 -8 10 -11 10 -3 0 -2 -4 1 -10z" /> </g> </svg>
